<svg xmlns="http://www.w3.org/2000/svg" xmlns:xlink="http://www.w3.org/1999/xlink" width="155.7" height="53.66" viewBox="0 0 155.7 53.66"><defs><style>.a{fill:url(#a);}.b{fill:#2a51a2;}.c{fill:#fbde0b;}.d{fill:none;}.e{fill:#081443;}.f{fill:#847b75;}.g{fill:#081442;}</style><linearGradient id="a" x1="0.001" y1="0.499" x2="1" y2="0.499" gradientUnits="objectBoundingBox"><stop offset="0" stop-color="#152a75"/><stop offset="0.17" stop-color="#1d3987"/><stop offset="0.39" stop-color="#244796"/><stop offset="0.64" stop-color="#294f9f"/><stop offset="1" stop-color="#2a51a2"/></linearGradient></defs><g transform="translate(77.85 65.076)"><g transform="translate(-77.85 -65.076)"><path class="a" d="M46,29.3A19.3,19.3,0,1,1,24.3,7.6V5.1A21.9,21.9,0,1,0,48.6,29.3Z"/><path class="b" d="M30.7,22.7V34.8h3.8v-16h-.7a18.4,18.4,0,0,0-18.3,16h3.6A14.9,14.9,0,0,1,30.7,22.7"/><path class="c" d="M50.8,18.6l-3.2.2v-.2a20.4,20.4,0,0,0-.9-2.2l2.6-1.9-1.4-2.4-3,1.2a19.7,19.7,0,0,0-1.7-2.1l1.9-2.6-2-1.8L40.6,8.9,38.2,7.3l1-3.1L36.7,3.1,34.9,5.9l-2.8-.7V2l-2.7-.3-.8,3.2h0V9.3A15.6,15.6,0,0,1,44.1,24.7h4.4a20.2,20.2,0,0,0-.2-2.4l3.1-1Z"/><rect class="d" width="43.7" height="43.68" transform="translate(5 5)"/><rect class="d" width="4" height="4.04" transform="translate(44.6 5)"/><rect class="d" width="4" height="4.04" transform="translate(5 5)"/><rect class="d" width="4" height="4.04" transform="translate(44.6 44.6)"/><rect class="d" width="4" height="4.04" transform="translate(5 44.6)"/><rect class="d" width="53.6" height="53.61"/><rect class="d" width="5" height="4.96" transform="translate(48.7)"/><rect class="d" width="5" height="4.96"/><rect class="d" width="5" height="4.96" transform="translate(48.7 48.7)"/><rect class="d" width="5" height="4.96" transform="translate(0 48.7)"/><path class="e" d="M61.3,25.9a5.3,5.3,0,0,1-2-2.1,6.5,6.5,0,0,1-.7-3.1,6.5,6.5,0,0,1,.7-3.1,5.3,5.3,0,0,1,2-2.1,6.1,6.1,0,0,1,5.9,0,5.3,5.3,0,0,1,2,2.1,6.5,6.5,0,0,1,.7,3.1,6.5,6.5,0,0,1-.7,3.1,5.3,5.3,0,0,1-2,2.1,6.1,6.1,0,0,1-5.9,0Zm5.5-2.4a4.4,4.4,0,0,0,.9-2.9,4.4,4.4,0,0,0-.9-2.9,3.6,3.6,0,0,0-5.2,0,4.4,4.4,0,0,0-.9,2.9,4.4,4.4,0,0,0,.9,2.9,3.6,3.6,0,0,0,5.2,0Z"/><path class="e" d="M73.6,14.9h4.1q4.1,0,4.1,3.7a3.7,3.7,0,0,1-1,2.9,4.4,4.4,0,0,1-3,.9h-2v4H73.6Zm3.9,5.8a2.3,2.3,0,0,0,1.6-.5,2,2,0,0,0,.5-1.5,1.9,1.9,0,0,0-.5-1.5,2.4,2.4,0,0,0-1.7-.5H75.7v4Z"/><path class="e" d="M87.6,16.9H84.3v-2H93v2H89.7v9.5H87.6Z"/><path class="e" d="M96.3,14.9h2.1V26.4H96.3Z"/><path class="e" d="M118.3,14.9h2.1V26.4h-2.1Z"/><path class="e" d="M126.9,24.5h5.5v1.9h-8.7l5.5-9.7h-4.8V14.9h8.1Z"/><path class="e" d="M135.7,14.9h7.4v2h-5.2v2.5H142v2h-4.1v3h5.4v2h-7.6Z"/><path class="e" d="M146.9,14.9h4.2a4.4,4.4,0,0,1,2.9.9,3.2,3.2,0,0,1,1.1,2.6,3.5,3.5,0,0,1-.5,2,3.6,3.6,0,0,1-1.5,1.2l2.6,4.9h-2.4l-2.2-4.3H149v4.3h-2.1Zm3.7,5.5q2.3,0,2.3-1.9a1.8,1.8,0,0,0-.5-1.4,2.6,2.6,0,0,0-1.7-.5H149v3.7Z"/><path class="f" d="M60.8,33.9a1.2,1.2,0,0,1-.4.9,1.6,1.6,0,0,1-1.1.3H57.5V30.7h1.7q1.3,0,1.3,1.1a1,1,0,0,1-.5,1,1.1,1.1,0,0,1,.8,1.1Zm-2.5-1.5h1.2a.85.85,0,0,0,0-.8H58.3Zm1.5,1.9a.725.725,0,0,0,0-1H58.3v1.3h1.5Z"/><path class="f" d="M66,30.7l-1.6,2.7v1.8h-.8V33.4L62,30.7h.9L64,32.6l1.1-1.9Z"/><path class="f" d="M70,30.7h.9l.9,3.2,1-3.2h.6l1,3.1.9-3.1h.9l-1.3,4.5h-.7l-1-3-1,3h-.8Z"/><path class="f" d="M77.9,30.7h.8v1.8h2.1V30.7h.8v4.5h-.8v-2h-2v1.9H78Z"/><path class="f" d="M83.9,30.7h.8v4.5h-.8Z"/><path class="f" d="M87.9,31.5H86.6v-.8H90v.8H88.7v3.7h-.8Z"/><path class="f" d="M91.9,30.7h2.9v.8h-2v1h1.6v.8H92.7v1.1h2.1v.8H91.9Z"/><path class="f" d="M100,35.2l-.7-.2v-.9a3.5,3.5,0,0,0,1.5.4h.5a.4.4,0,0,0,.2-.4.5.5,0,0,0-.1-.3l-.3-.2-.6-.2-.7-.3-.4-.4a1.1,1.1,0,0,1-.2-.6,1.2,1.2,0,0,1,.4-.9,1.9,1.9,0,0,1,1.2-.4h.7l.7.2v.8l-.7-.3h-1.2a.5.5,0,0,0-.1.7l.3.2.5.2,1.1.6a1.1,1.1,0,0,1,.4.9,1.3,1.3,0,0,1-.4.9,1.9,1.9,0,0,1-1.4.4Z"/><path class="f" d="M104.5,30.7h.8v1.8h2.1V30.7h.8v4.5h-.8v-2h-2.1v1.9h-.8Z"/><path class="f" d="M112.8,34.1h-1.6l-.4,1.1H110l1.6-4.5h.8l1.6,4.5h-.8Zm-.3-.7-.6-1.6-.6,1.6Z"/><path class="f" d="M115.8,30.7h1.6a1.7,1.7,0,0,1,1.1.3,1.2,1.2,0,0,1,.4,1,1.4,1.4,0,0,1-.2.8l-.6.5,1,1.9h-.9l-.9-1.7h-.8v1.7h-.8Zm1.4,2.1q.9,0,.9-.7a.7.7,0,0,0-.2-.5l-.7-.2h-.6v1.5Z"/><path class="f" d="M121.1,30.7h.8v4.5h-.8Zm.9,2.1,1.7-2.1h1L123,32.8l1.7,2.4h-1Z"/><path class="f" d="M132.9,35.2l-.4-3-1.1,2.1-1.2-2.1-.4,3h-.9l.6-4.5h.7l1.1,2,1.1-2h.7l.6,4.5Z"/><path class="f" d="M135.8,30.7h2.9v.8h-2v1h1.6v.8h-1.6v1.1h2.1v.8h-2.9Z"/><path class="f" d="M140.7,30.7h1.7a2.4,2.4,0,0,1,1.1.3,1.9,1.9,0,0,1,.8.8,2.7,2.7,0,0,1,0,2.4,1.9,1.9,0,0,1-.8.8,2.4,2.4,0,0,1-1.1.3h-1.7Zm1.7,3.8a1.2,1.2,0,0,0,1-.4,2,2,0,0,0,0-2.2,1.2,1.2,0,0,0-1-.4h-.9v3Z"/><path class="f" d="M146.6,30.7h.8v4.5h-.8Z"/><path class="f" d="M152,34.1h-1.6l-.4,1.1h-.8l1.6-4.5h.8l1.6,4.5h-.8Zm-.3-.7-.6-1.6-.6,1.6Z"/><rect class="d" width="2.4" height="9.4" transform="translate(57.9 22.7) rotate(90)"/><path class="g" d="M113.4,26.4V14.9h-1.9l-3.2,5.7-3.1-5.7h-1.9V26.4h1.9v-8l3.1,5.4,3.2-5.4v8Z"/></g></g></svg>